<svg width="720" height="414" viewBox="0 0 720 414" fill="none" xmlns="http://www.w3.org/2000/svg">
<path d="M539.12 135C137.55 -63.66 22.8799 298.42 3.62988 369.01C140.14 -131.63 522.74 95.91 522.98 96.04L539.12 135Z" fill="url(#paint0_linear_401_5461)"/>
<path d="M429.95 414L483.52 272.01L481.5 244.56L457.25 256L412.24 370.59L429.95 414Z" fill="url(#paint1_linear_401_5461)"/>
<path d="M599.42 0L561.97 4.89999L520.25 89.47L539.12 135L599.42 0Z" fill="url(#paint2_linear_401_5461)"/>
<path d="M483.52 272.01C483.52 272.01 231.46 89.78 0.819824 380.78C0.819824 380.78 95.2198 -84.63 539.12 135L599.42 0L719.18 297.6L429.95 414L483.51 272.01H483.52Z" fill="url(#paint3_linear_401_5461)"/>
<path d="M583.57 202.86C568.65 206.17 556.63 218.4 554.33 234.41L554.13 235.92C551.41 256.62 565.98 275.61 586.67 278.32C607.37 281.05 626.36 266.47 629.08 245.77L629.17 245.13C632.13 224.46 617.78 205.3 597.11 202.35C592.47 201.69 587.91 201.89 583.58 202.86H583.57Z" fill="url(#paint4_radial_401_5461)"/>
<path style="mix-blend-mode:screen" d="M636.51 247.53C628.95 214.85 596.34 194.52 563.67 202.11C531.02 209.68 510.68 242.3 518.24 274.97C525.81 307.63 558.42 327.96 591.09 320.39C623.74 312.81 644.09 280.19 636.51 247.52V247.53Z" fill="url(#paint5_radial_401_5461)"/>
<path d="M484.11 166.1C474.36 168.27 466.49 176.26 464.99 186.73L464.86 187.72C463.08 201.25 472.61 213.67 486.14 215.44C499.68 217.23 512.09 207.69 513.87 194.16L513.93 193.74C515.86 180.23 506.49 167.7 492.97 165.76C489.93 165.34 486.95 165.47 484.12 166.1H484.11Z" fill="url(#paint6_radial_401_5461)"/>
<path style="mix-blend-mode:screen" d="M518.73 195.31C513.78 173.94 492.46 160.65 471.1 165.62C449.75 170.57 436.45 191.9 441.39 213.25C446.34 234.61 467.66 247.9 489.02 242.95C510.37 238 523.67 216.66 518.72 195.31H518.73Z" fill="url(#paint7_radial_401_5461)"/>
<path d="M391.53 130.37C381.77 132.54 373.91 140.53 372.41 151.01L372.27 151.99C370.49 165.53 380.02 177.94 393.55 179.71C407.09 181.5 419.5 171.96 421.28 158.42L421.34 158C423.27 144.49 413.9 131.96 400.38 130.03C397.34 129.61 394.36 129.73 391.53 130.37Z" fill="url(#paint8_radial_401_5461)"/>
<path style="mix-blend-mode:screen" d="M426.14 159.58C421.19 138.21 399.87 124.92 378.51 129.89C357.16 134.84 343.86 156.17 348.81 177.53C353.76 198.89 375.08 212.18 396.44 207.23C417.79 202.28 431.09 180.94 426.14 159.59V159.58Z" fill="url(#paint9_radial_401_5461)"/>
<path d="M290.01 117.79C280.25 119.96 272.39 127.95 270.89 138.43L270.75 139.41C268.97 152.94 278.5 165.36 292.03 167.13C305.56 168.92 317.98 159.38 319.76 145.84L319.81 145.42C321.75 131.9 312.37 119.38 298.85 117.45C295.82 117.03 292.83 117.15 290 117.79H290.01Z" fill="url(#paint10_radial_401_5461)"/>
<path style="mix-blend-mode:screen" d="M324.63 147C319.69 125.63 298.36 112.33 277.01 117.3C255.66 122.25 242.36 143.58 247.31 164.94C252.26 186.3 273.58 199.59 294.93 194.64C316.28 189.69 329.59 168.36 324.63 147Z" fill="url(#paint11_radial_401_5461)"/>
<path d="M191.88 138.7C182.12 140.86 174.26 148.86 172.76 159.34L172.62 160.32C170.84 173.86 180.37 186.27 193.9 188.04C207.44 189.83 219.85 180.29 221.63 166.75L221.69 166.33C223.62 152.82 214.25 140.29 200.73 138.36C197.69 137.94 194.71 138.06 191.88 138.7Z" fill="url(#paint12_radial_401_5461)"/>
<path style="mix-blend-mode:screen" d="M226.49 167.91C221.54 146.54 200.22 133.25 178.86 138.22C157.51 143.17 144.21 164.5 149.16 185.86C154.11 207.22 175.43 220.51 196.79 215.55C218.14 210.6 231.44 189.27 226.49 167.91Z" fill="url(#paint13_radial_401_5461)"/>
<path d="M94.6301 205.53C84.8801 207.7 77.0101 215.69 75.5101 226.17L75.3701 227.15C73.5901 240.69 83.1201 253.1 96.6501 254.87C110.18 256.66 122.6 247.12 124.38 233.58L124.43 233.16C126.37 219.64 116.99 207.12 103.47 205.19C100.44 204.77 97.4501 204.89 94.6201 205.53H94.6301Z" fill="url(#paint14_radial_401_5461)"/>
<path style="mix-blend-mode:screen" d="M129.25 234.74C124.31 213.37 102.98 200.07 81.63 205.04C60.28 209.99 46.98 231.32 51.93 252.68C56.88 274.04 78.2 287.33 99.55 282.38C120.9 277.43 134.21 256.1 129.25 234.74Z" fill="url(#paint15_radial_401_5461)"/>
<defs>
<linearGradient id="paint0_linear_401_5461" x1="-33.8605" y1="275.95" x2="508.04" y2="57.8872" gradientUnits="userSpaceOnUse">
<stop stop-color="#6C1B13"/>
<stop offset="1" stop-color="#AD253B"/>
</linearGradient>
<linearGradient id="paint1_linear_401_5461" x1="403.948" y1="350.091" x2="507.202" y2="308.541" gradientUnits="userSpaceOnUse">
<stop stop-color="#6C1B13"/>
<stop offset="1" stop-color="#AD253B"/>
</linearGradient>
<linearGradient id="paint2_linear_401_5461" x1="517.671" y1="83.1591" x2="616.796" y2="43.2708" gradientUnits="userSpaceOnUse">
<stop stop-color="#6C1B13"/>
<stop offset="1" stop-color="#AD253B"/>
</linearGradient>
<linearGradient id="paint3_linear_401_5461" x1="1.97722" y1="383.787" x2="649.043" y2="123.406" gradientUnits="userSpaceOnUse">
<stop stop-color="#801E1B"/>
<stop offset="0.06" stop-color="#9B1F1D"/>
<stop offset="0.13" stop-color="#B62020"/>
<stop offset="0.21" stop-color="#CB2123"/>
<stop offset="0.29" stop-color="#DA2224"/>
<stop offset="0.4" stop-color="#E32225"/>
<stop offset="0.55" stop-color="#E62326"/>
<stop offset="0.64" stop-color="#E22225"/>
<stop offset="0.73" stop-color="#D62224"/>
<stop offset="0.82" stop-color="#C32122"/>
<stop offset="0.9" stop-color="#A81F1F"/>
<stop offset="0.99" stop-color="#851E1B"/>
<stop offset="1" stop-color="#801E1B"/>
</linearGradient>
<radialGradient id="paint4_radial_401_5461" cx="0" cy="0" r="1" gradientUnits="userSpaceOnUse" gradientTransform="translate(580.428 258.157) rotate(-12.5) scale(59.0616 59.0616)">
<stop stop-color="white"/>
<stop offset="0.11" stop-color="#FFFEFB"/>
<stop offset="0.21" stop-color="#FFFCF0"/>
<stop offset="0.31" stop-color="#FFF9DD"/>
<stop offset="0.4" stop-color="#FFF4C2"/>
<stop offset="0.5" stop-color="#FFEEA0"/>
<stop offset="0.59" stop-color="#FFE777"/>
<stop offset="0.66" stop-color="#FFE050"/>
<stop offset="0.7" stop-color="#F9D94D"/>
<stop offset="0.75" stop-color="#EBC644"/>
<stop offset="0.81" stop-color="#D4A637"/>
<stop offset="0.88" stop-color="#B88027"/>
</radialGradient>
<radialGradient id="paint5_radial_401_5461" cx="0" cy="0" r="1" gradientUnits="userSpaceOnUse" gradientTransform="translate(552.024 272.007) rotate(-13.07) scale(61.176 61.176)">
<stop stop-color="#F2E500"/>
<stop offset="0.11" stop-color="#EDE100" stop-opacity="0.98"/>
<stop offset="0.24" stop-color="#E2D502" stop-opacity="0.92"/>
<stop offset="0.37" stop-color="#CEC305" stop-opacity="0.83"/>
<stop offset="0.51" stop-color="#B3A809" stop-opacity="0.7"/>
<stop offset="0.66" stop-color="#8F870E" stop-opacity="0.53"/>
<stop offset="0.81" stop-color="#645D15" stop-opacity="0.32"/>
<stop offset="0.95" stop-color="#322E1C" stop-opacity="0.08"/>
<stop offset="1" stop-color="#221E1F" stop-opacity="0"/>
</radialGradient>
<radialGradient id="paint6_radial_401_5461" cx="0" cy="0" r="1" gradientUnits="userSpaceOnUse" gradientTransform="translate(481.525 202.821) rotate(-12.5) scale(38.6172 38.6172)">
<stop stop-color="white"/>
<stop offset="0.11" stop-color="#FFFEFB"/>
<stop offset="0.21" stop-color="#FFFCF0"/>
<stop offset="0.31" stop-color="#FFF9DD"/>
<stop offset="0.4" stop-color="#FFF4C2"/>
<stop offset="0.5" stop-color="#FFEEA0"/>
<stop offset="0.59" stop-color="#FFE777"/>
<stop offset="0.66" stop-color="#FFE050"/>
<stop offset="0.7" stop-color="#F9D94D"/>
<stop offset="0.75" stop-color="#EBC644"/>
<stop offset="0.81" stop-color="#D4A637"/>
<stop offset="0.88" stop-color="#B88027"/>
</radialGradient>
<radialGradient id="paint7_radial_401_5461" cx="0" cy="0" r="1" gradientUnits="userSpaceOnUse" gradientTransform="translate(453.923 214.602) rotate(-13.07) scale(39.996 39.996)">
<stop stop-color="#F2E500"/>
<stop offset="0.11" stop-color="#EDE100" stop-opacity="0.98"/>
<stop offset="0.24" stop-color="#E2D502" stop-opacity="0.92"/>
<stop offset="0.37" stop-color="#CEC305" stop-opacity="0.83"/>
<stop offset="0.51" stop-color="#B3A809" stop-opacity="0.7"/>
<stop offset="0.66" stop-color="#8F870E" stop-opacity="0.53"/>
<stop offset="0.81" stop-color="#645D15" stop-opacity="0.32"/>
<stop offset="0.95" stop-color="#322E1C" stop-opacity="0.08"/>
<stop offset="1" stop-color="#221E1F" stop-opacity="0"/>
</radialGradient>
<radialGradient id="paint8_radial_401_5461" cx="0" cy="0" r="1" gradientUnits="userSpaceOnUse" gradientTransform="translate(388.854 167.066) rotate(-12.5) scale(38.6172 38.6172)">
<stop stop-color="white"/>
<stop offset="0.11" stop-color="#FFFEFB"/>
<stop offset="0.21" stop-color="#FFFCF0"/>
<stop offset="0.31" stop-color="#FFF9DD"/>
<stop offset="0.4" stop-color="#FFF4C2"/>
<stop offset="0.5" stop-color="#FFEEA0"/>
<stop offset="0.59" stop-color="#FFE777"/>
<stop offset="0.66" stop-color="#FFE050"/>
<stop offset="0.7" stop-color="#F9D94D"/>
<stop offset="0.75" stop-color="#EBC644"/>
<stop offset="0.81" stop-color="#D4A637"/>
<stop offset="0.88" stop-color="#B88027"/>
</radialGradient>
<radialGradient id="paint9_radial_401_5461" cx="0" cy="0" r="1" gradientUnits="userSpaceOnUse" gradientTransform="translate(360.602 178.608) rotate(-13.07) scale(40.002 40.002)">
<stop stop-color="#F2E500"/>
<stop offset="0.11" stop-color="#EDE100" stop-opacity="0.98"/>
<stop offset="0.24" stop-color="#E2D502" stop-opacity="0.92"/>
<stop offset="0.37" stop-color="#CEC305" stop-opacity="0.83"/>
<stop offset="0.51" stop-color="#B3A809" stop-opacity="0.7"/>
<stop offset="0.66" stop-color="#8F870E" stop-opacity="0.53"/>
<stop offset="0.81" stop-color="#645D15" stop-opacity="0.32"/>
<stop offset="0.95" stop-color="#322E1C" stop-opacity="0.08"/>
<stop offset="1" stop-color="#221E1F" stop-opacity="0"/>
</radialGradient>
<radialGradient id="paint10_radial_401_5461" cx="0" cy="0" r="1" gradientUnits="userSpaceOnUse" gradientTransform="translate(287.241 154.478) rotate(-12.5) scale(38.6172 38.6172)">
<stop stop-color="white"/>
<stop offset="0.11" stop-color="#FFFEFB"/>
<stop offset="0.21" stop-color="#FFFCF0"/>
<stop offset="0.31" stop-color="#FFF9DD"/>
<stop offset="0.4" stop-color="#FFF4C2"/>
<stop offset="0.5" stop-color="#FFEEA0"/>
<stop offset="0.59" stop-color="#FFE777"/>
<stop offset="0.66" stop-color="#FFE050"/>
<stop offset="0.7" stop-color="#F9D94D"/>
<stop offset="0.75" stop-color="#EBC644"/>
<stop offset="0.81" stop-color="#D4A637"/>
<stop offset="0.88" stop-color="#B88027"/>
</radialGradient>
<radialGradient id="paint11_radial_401_5461" cx="0" cy="0" r="1" gradientUnits="userSpaceOnUse" gradientTransform="translate(258.28 165.929) rotate(-13.07) scale(39.996 39.996)">
<stop stop-color="#F2E500"/>
<stop offset="0.11" stop-color="#EDE100" stop-opacity="0.98"/>
<stop offset="0.24" stop-color="#E2D502" stop-opacity="0.92"/>
<stop offset="0.37" stop-color="#CEC305" stop-opacity="0.83"/>
<stop offset="0.51" stop-color="#B3A809" stop-opacity="0.7"/>
<stop offset="0.66" stop-color="#8F870E" stop-opacity="0.53"/>
<stop offset="0.81" stop-color="#645D15" stop-opacity="0.32"/>
<stop offset="0.95" stop-color="#322E1C" stop-opacity="0.08"/>
<stop offset="1" stop-color="#221E1F" stop-opacity="0"/>
</radialGradient>
<radialGradient id="paint12_radial_401_5461" cx="0" cy="0" r="1" gradientUnits="userSpaceOnUse" gradientTransform="translate(189.012 175.418) rotate(-12.5) scale(38.6172 38.6172)">
<stop stop-color="white"/>
<stop offset="0.11" stop-color="#FFFEFB"/>
<stop offset="0.21" stop-color="#FFFCF0"/>
<stop offset="0.31" stop-color="#FFF9DD"/>
<stop offset="0.4" stop-color="#FFF4C2"/>
<stop offset="0.5" stop-color="#FFEEA0"/>
<stop offset="0.59" stop-color="#FFE777"/>
<stop offset="0.66" stop-color="#FFE050"/>
<stop offset="0.7" stop-color="#F9D94D"/>
<stop offset="0.75" stop-color="#EBC644"/>
<stop offset="0.81" stop-color="#D4A637"/>
<stop offset="0.88" stop-color="#B88027"/>
</radialGradient>
<radialGradient id="paint13_radial_401_5461" cx="0" cy="0" r="1" gradientUnits="userSpaceOnUse" gradientTransform="translate(159.383 186.997) rotate(-13.07) scale(39.996 39.996)">
<stop stop-color="#F2E500"/>
<stop offset="0.11" stop-color="#EDE100" stop-opacity="0.98"/>
<stop offset="0.24" stop-color="#E2D502" stop-opacity="0.92"/>
<stop offset="0.37" stop-color="#CEC305" stop-opacity="0.83"/>
<stop offset="0.51" stop-color="#B3A809" stop-opacity="0.7"/>
<stop offset="0.66" stop-color="#8F870E" stop-opacity="0.53"/>
<stop offset="0.81" stop-color="#645D15" stop-opacity="0.32"/>
<stop offset="0.95" stop-color="#322E1C" stop-opacity="0.08"/>
<stop offset="1" stop-color="#221E1F" stop-opacity="0"/>
</radialGradient>
<radialGradient id="paint14_radial_401_5461" cx="0" cy="0" r="1" gradientUnits="userSpaceOnUse" gradientTransform="translate(91.6808 242.321) rotate(-12.5) scale(38.6172 38.6172)">
<stop stop-color="white"/>
<stop offset="0.11" stop-color="#FFFEFB"/>
<stop offset="0.21" stop-color="#FFFCF0"/>
<stop offset="0.31" stop-color="#FFF9DD"/>
<stop offset="0.4" stop-color="#FFF4C2"/>
<stop offset="0.5" stop-color="#FFEEA0"/>
<stop offset="0.59" stop-color="#FFE777"/>
<stop offset="0.66" stop-color="#FFE050"/>
<stop offset="0.7" stop-color="#F9D94D"/>
<stop offset="0.75" stop-color="#EBC644"/>
<stop offset="0.81" stop-color="#D4A637"/>
<stop offset="0.88" stop-color="#B88027"/>
</radialGradient>
<radialGradient id="paint15_radial_401_5461" cx="0" cy="0" r="1" gradientUnits="userSpaceOnUse" gradientTransform="translate(61.409 254.338) rotate(-13.07) scale(39.996)">
<stop stop-color="#F2E500"/>
<stop offset="0.11" stop-color="#EDE100" stop-opacity="0.98"/>
<stop offset="0.24" stop-color="#E2D502" stop-opacity="0.92"/>
<stop offset="0.37" stop-color="#CEC305" stop-opacity="0.83"/>
<stop offset="0.51" stop-color="#B3A809" stop-opacity="0.7"/>
<stop offset="0.66" stop-color="#8F870E" stop-opacity="0.53"/>
<stop offset="0.81" stop-color="#645D15" stop-opacity="0.32"/>
<stop offset="0.95" stop-color="#322E1C" stop-opacity="0.08"/>
<stop offset="1" stop-color="#221E1F" stop-opacity="0"/>
</radialGradient>
</defs>
</svg>
