<svg width="20" height="20" viewBox="0 0 20 20" fill="none" xmlns="http://www.w3.org/2000/svg">
<path d="M6.875 8.12501H3.125C2.95924 8.12501 2.80027 8.05916 2.68306 7.94195C2.56585 7.82474 2.5 7.66577 2.5 7.50001V3.75001C2.5 3.58425 2.56585 3.42528 2.68306 3.30807C2.80027 3.19086 2.95924 3.12501 3.125 3.12501C3.29076 3.12501 3.44973 3.19086 3.56694 3.30807C3.68415 3.42528 3.75 3.58425 3.75 3.75001V5.99142L4.89297 4.84845C6.28688 3.44752 8.18 2.65734 10.1562 2.65158H10.1977C12.1571 2.64653 14.0396 3.41363 15.4375 4.78673C15.5516 4.9035 15.6155 5.06029 15.6156 5.22358C15.6156 5.38686 15.5517 5.54367 15.4375 5.66045C15.3234 5.77722 15.1681 5.8447 15.0049 5.84845C14.8416 5.85219 14.6834 5.7919 14.5641 5.68048C13.3989 4.53679 11.8303 3.89775 10.1977 3.90158H10.1625C8.51577 3.90664 6.93834 4.56498 5.77656 5.73204L4.63359 6.87501H6.875C7.04076 6.87501 7.19973 6.94086 7.31694 7.05807C7.43415 7.17528 7.5 7.33425 7.5 7.50001C7.5 7.66577 7.43415 7.82474 7.31694 7.94195C7.19973 8.05916 7.04076 8.12501 6.875 8.12501ZM16.875 11.875H13.125C12.9592 11.875 12.8003 11.9409 12.6831 12.0581C12.5658 12.1753 12.5 12.3343 12.5 12.5C12.5 12.6658 12.5658 12.8247 12.6831 12.942C12.8003 13.0592 12.9592 13.125 13.125 13.125H15.3664L14.2234 14.268C13.0619 15.4349 11.4847 16.0932 9.83828 16.0984H9.80313C8.17045 16.1023 6.60189 15.4632 5.43672 14.3195C5.37851 14.26 5.30898 14.2127 5.23222 14.1804C5.15546 14.1481 5.07302 14.1314 4.98974 14.1314C4.90646 14.1314 4.82402 14.1481 4.74727 14.1804C4.67051 14.2127 4.60099 14.26 4.54278 14.3196C4.48457 14.3792 4.43886 14.4497 4.40832 14.5272C4.37778 14.6047 4.36303 14.6875 4.36494 14.7708C4.36685 14.854 4.38538 14.9361 4.41944 15.012C4.4535 15.088 4.5024 15.1565 4.56328 15.2133C5.96115 16.5864 7.84369 17.3535 9.80313 17.3484H9.84375C11.8197 17.3425 13.7125 16.5523 15.1062 15.1516L16.25 14.0086V16.25C16.25 16.4158 16.3158 16.5747 16.4331 16.692C16.5503 16.8092 16.7092 16.875 16.875 16.875C17.0408 16.875 17.1997 16.8092 17.3169 16.692C17.4342 16.5747 17.5 16.4158 17.5 16.25V12.5C17.5 12.3343 17.4342 12.1753 17.3169 12.0581C17.1997 11.9409 17.0408 11.875 16.875 11.875Z" fill="#343330"/>
</svg>
