<svg width="32" height="32" viewBox="0 0 32 32" fill="none" xmlns="http://www.w3.org/2000/svg">
<path d="M29.2862 14.3563L23.6612 19.21L25.375 26.4688C25.4695 26.8628 25.4452 27.2761 25.305 27.6563C25.1648 28.0365 24.9151 28.3666 24.5874 28.605C24.2597 28.8433 23.8687 28.9792 23.4638 28.9955C23.0589 29.0117 22.6582 28.9076 22.3125 28.6963L16 24.8113L9.68373 28.6963C9.33802 28.9064 8.93786 29.0095 8.53366 28.9927C8.12945 28.9758 7.73927 28.8398 7.41224 28.6016C7.08521 28.3634 6.83595 28.0339 6.69586 27.6543C6.55577 27.2748 6.53111 26.8623 6.62498 26.4688L8.34498 19.21L2.71998 14.3563C2.41411 14.0919 2.19289 13.7433 2.08396 13.354C1.97503 12.9646 1.98322 12.5518 2.1075 12.1671C2.23178 11.7824 2.46665 11.4428 2.78277 11.1908C3.09889 10.9388 3.48225 10.7855 3.88498 10.75L11.26 10.155L14.105 3.27004C14.259 2.89481 14.5211 2.57385 14.8579 2.34796C15.1948 2.12208 15.5913 2.00146 15.9969 2.00146C16.4025 2.00146 16.7989 2.12208 17.1358 2.34796C17.4726 2.57385 17.7347 2.89481 17.8887 3.27004L20.7325 10.155L28.1075 10.75C28.511 10.7842 28.8955 10.9366 29.2128 11.1883C29.53 11.44 29.766 11.7797 29.891 12.1649C30.0161 12.55 30.0247 12.9636 29.9158 13.3536C29.8069 13.7436 29.5853 14.0929 29.2787 14.3575L29.2862 14.3563Z" fill="#343330"/>
</svg>
