<svg width="80" height="80" viewBox="0 0 80 80" fill="none" xmlns="http://www.w3.org/2000/svg">
<circle cx="40" cy="40" r="40" fill="#00C850"/>
<path d="M53.0332 43.6837L46.0332 40.1837C45.7576 40.0464 45.4507 39.9843 45.1435 40.0035C44.8362 40.0227 44.5394 40.1226 44.2831 40.2931L41.0697 42.4369C39.5946 41.6259 38.3806 40.412 37.5697 38.9369L39.7135 35.7234C39.884 35.4671 39.9839 35.1704 40.0031 34.8631C40.0223 34.5559 39.9601 34.249 39.8228 33.9734L36.3228 26.9734C36.1778 26.6805 35.9535 26.434 35.6755 26.2619C35.3976 26.0899 35.0769 25.9992 34.75 26C32.4294 26 30.2038 26.9219 28.5628 28.5628C26.9219 30.2038 26 32.4294 26 34.75C26.0058 39.8536 28.0358 44.7466 31.6446 48.3554C35.2534 51.9642 40.1464 53.9942 45.25 54C46.3991 54 47.5369 53.7737 48.5985 53.3339C49.6601 52.8942 50.6247 52.2497 51.4372 51.4372C52.2497 50.6247 52.8942 49.6601 53.334 48.5985C53.7737 47.5369 54 46.3991 54 45.25C54.0003 44.9249 53.9099 44.6061 53.7391 44.3295C53.5684 44.0528 53.3239 43.8292 53.0332 43.6837ZM45.25 50.5C41.0743 50.4954 37.0709 48.8345 34.1182 45.8818C31.1655 42.9291 29.5047 38.9257 29.5 34.75C29.4997 33.5362 29.9199 32.3598 30.6893 31.4209C31.4586 30.4821 32.5295 29.8388 33.7197 29.6006L36.231 34.6319L34.0938 37.8125C33.9341 38.0521 33.8359 38.3273 33.8081 38.6139C33.7802 38.9005 33.8235 39.1895 33.9341 39.4553C35.1862 42.4312 37.5536 44.7985 40.5294 46.0506C40.796 46.1661 41.0872 46.2134 41.3767 46.1882C41.6662 46.163 41.9449 46.0661 42.1875 45.9062L45.3835 43.7756L50.4147 46.2869C50.1747 47.4784 49.5286 48.5498 48.5867 49.3181C47.6448 50.0865 46.4655 50.5042 45.25 50.5ZM40 17.25C36.0723 17.2491 32.2112 18.2652 28.7927 20.1993C25.3742 22.1333 22.5146 24.9195 20.4923 28.2866C18.47 31.6537 17.3539 35.487 17.2526 39.4134C17.1514 43.3399 18.0684 47.2256 19.9144 50.6925L17.4316 58.1409C17.2259 58.7576 17.1961 59.4194 17.3454 60.0521C17.4947 60.6848 17.8173 61.2634 18.2769 61.7231C18.7366 62.1827 19.3152 62.5053 19.9479 62.6546C20.5806 62.8039 21.2424 62.7741 21.8591 62.5684L29.3075 60.0856C32.3586 61.7084 35.7392 62.6148 39.1929 62.736C42.6466 62.8572 46.0824 62.19 49.2397 60.785C52.397 59.3801 55.1928 57.2743 57.4147 54.6276C59.6367 51.9808 61.2265 48.8626 62.0634 45.5097C62.9004 42.1568 62.9625 38.6573 62.245 35.2768C61.5275 31.8963 60.0494 28.7237 57.9227 25.9998C55.7961 23.2759 53.0768 21.0723 49.9713 19.5562C46.8659 18.0401 43.4558 17.2514 40 17.25ZM40 59.25C36.6159 59.2523 33.2912 58.3611 30.3619 56.6666C30.1474 56.5422 29.909 56.4648 29.6623 56.4395C29.4157 56.4143 29.1665 56.4417 28.9313 56.52L20.75 59.25L23.4778 51.0688C23.5565 50.8337 23.5843 50.5846 23.5594 50.3379C23.5345 50.0913 23.4575 49.8528 23.3335 49.6381C21.2115 45.9695 20.3596 41.7031 20.9098 37.5009C21.46 33.2987 23.3816 29.3955 26.3765 26.3968C29.3714 23.3981 33.2721 21.4716 37.4737 20.9161C41.6752 20.3606 45.9426 21.2071 49.6139 23.3244C53.2852 25.4417 56.1552 28.7114 57.7786 32.6263C59.402 36.5411 59.6881 40.8823 58.5925 44.9763C57.4969 49.0704 55.0809 52.6884 51.7192 55.2692C48.3575 57.85 44.2381 59.2493 40 59.25Z" fill="white"/>
</svg>
